<svg width="2117" height="1095" xmlns="http://www.w3.org/2000/svg" xmlns:xlink="http://www.w3.org/1999/xlink" xml:space="preserve" overflow="hidden"><defs><clipPath id="clip0"><rect x="206" y="742" width="2117" height="1095"/></clipPath></defs><g clip-path="url(#clip0)" transform="translate(-206 -742)"><rect x="211.5" y="745.5" width="2107" height="1089" stroke="#036749" stroke-width="4.58333" stroke-linecap="butt" stroke-linejoin="miter" stroke-miterlimit="8" stroke-opacity="1" fill="#FFFFFF" fill-opacity="1"/><rect x="856.5" y="946.5" width="555" height="629" stroke="#EFF8D4" stroke-width="4.58333" stroke-linecap="butt" stroke-linejoin="miter" stroke-miterlimit="8" stroke-opacity="1" fill="#EFF8D4" fill-opacity="1"/><rect x="419.5" y="946.5" width="264" height="629" stroke="#EFF8D4" stroke-width="4.58333" stroke-linecap="butt" stroke-linejoin="miter" stroke-miterlimit="8" stroke-opacity="1" fill="#EFF8D4" fill-opacity="1"/><path d="M486.5 1232C486.5 1196.93 514.93 1168.5 550 1168.5 585.07 1168.5 613.5 1196.93 613.5 1232 613.5 1267.07 585.07 1295.5 550 1295.5 514.93 1295.5 486.5 1267.07 486.5 1232Z" stroke="#024A33" stroke-width="4.58333" stroke-linecap="butt" stroke-linejoin="miter" stroke-miterlimit="8" stroke-opacity="1" fill="#B0FDE6" fill-rule="evenodd" fill-opacity="1"/><path d="M926.5 1111C926.5 1075.93 955.154 1047.5 990.5 1047.5 1025.85 1047.5 1054.5 1075.93 1054.5 1111 1054.5 1146.07 1025.85 1174.5 990.5 1174.5 955.154 1174.5 926.5 1146.07 926.5 1111Z" stroke="#024A33" stroke-width="4.58333" stroke-linecap="butt" stroke-linejoin="miter" stroke-miterlimit="8" stroke-opacity="1" fill="#B0FDE6" fill-rule="evenodd" fill-opacity="1"/><text fill="#000000" fill-opacity="1" font-family="Cambria Math,Cambria Math_MSFontService,sans-serif" font-style="normal" font-variant="normal" font-weight="400" font-stretch="normal" font-size="83" text-anchor="start" direction="ltr" writing-mode="lr-tb" unicode-bidi="normal" text-decoration="none" transform="translate(961.007 1138)">+</text><path d="M1213.5 1111C1213.5 1075.93 1242.15 1047.5 1277.5 1047.5 1312.85 1047.5 1341.5 1075.93 1341.5 1111 1341.5 1146.07 1312.85 1174.5 1277.5 1174.5 1242.15 1174.5 1213.5 1146.07 1213.5 1111Z" stroke="#024A33" stroke-width="4.58333" stroke-linecap="butt" stroke-linejoin="miter" stroke-miterlimit="8" stroke-opacity="1" fill="#B0FDE6" fill-rule="evenodd" fill-opacity="1"/><text fill="#000000" fill-opacity="1" font-family="Cambria Math,Cambria Math_MSFontService,sans-serif" font-style="normal" font-variant="normal" font-weight="400" font-stretch="normal" font-size="83" text-anchor="start" direction="ltr" writing-mode="lr-tb" unicode-bidi="normal" text-decoration="none" transform="translate(1255.02 1138)">𝑓</text><path d="M295 1229.85 462.815 1229.85 462.815 1232.15 295 1232.15ZM458.232 1217.25 485.732 1231 458.232 1244.75Z" fill="#036749" fill-rule="nonzero" fill-opacity="1"/><rect x="1584.5" y="946.5" width="555" height="629" stroke="#EFF8D4" stroke-width="4.58333" stroke-linecap="butt" stroke-linejoin="miter" stroke-miterlimit="8" stroke-opacity="1" fill="#EFF8D4" fill-opacity="1"/><path d="M1654.5 1232C1654.5 1196.93 1682.93 1168.5 1718 1168.5 1753.07 1168.5 1781.5 1196.93 1781.5 1232 1781.5 1267.07 1753.07 1295.5 1718 1295.5 1682.93 1295.5 1654.5 1267.07 1654.5 1232Z" stroke="#024A33" stroke-width="4.58333" stroke-linecap="butt" stroke-linejoin="miter" stroke-miterlimit="8" stroke-opacity="1" fill="#B0FDE6" fill-rule="evenodd" fill-opacity="1"/><text fill="#000000" fill-opacity="1" font-family="Cambria Math,Cambria Math_MSFontService,sans-serif" font-style="normal" font-variant="normal" font-weight="400" font-stretch="normal" font-size="83" text-anchor="start" direction="ltr" writing-mode="lr-tb" unicode-bidi="normal" text-decoration="none" transform="translate(1688.84 1258)">+</text><path d="M1941.5 1232C1941.5 1196.93 1969.93 1168.5 2005 1168.5 2040.07 1168.5 2068.5 1196.93 2068.5 1232 2068.5 1267.07 2040.07 1295.5 2005 1295.5 1969.93 1295.5 1941.5 1267.07 1941.5 1232Z" stroke="#024A33" stroke-width="4.58333" stroke-linecap="butt" stroke-linejoin="miter" stroke-miterlimit="8" stroke-opacity="1" fill="#B0FDE6" fill-rule="evenodd" fill-opacity="1"/><text fill="#000000" fill-opacity="1" font-family="Cambria Math,Cambria Math_MSFontService,sans-serif" font-style="normal" font-variant="normal" font-weight="400" font-stretch="normal" font-size="83" text-anchor="start" direction="ltr" writing-mode="lr-tb" unicode-bidi="normal" text-decoration="none" transform="translate(1982.85 1258)">𝑓</text><path d="M0.411717-1.06931 292.188 111.273 291.364 113.412-0.411717 1.06931ZM292.439 97.8641 313.162 120.577 282.558 123.528Z" fill="#036749" fill-rule="nonzero" fill-opacity="1" transform="matrix(1 0 0 -1 613 1231.58)"/><path d="M1054 1109.85 1190.76 1109.86 1190.76 1112.15 1054 1112.15ZM1186.18 1097.25 1213.68 1111 1186.18 1124.75Z" fill="#036749" fill-rule="nonzero" fill-opacity="1"/><path d="M1341.33 1109.9 1632.55 1197.7 1631.89 1199.9 1340.67 1112.1ZM1631.8 1184.31 1654.16 1205.41 1623.86 1210.64Z" fill="#036749" fill-rule="nonzero" fill-opacity="1"/><path d="M1781 1229.85 1917.76 1229.85 1917.76 1232.15 1781 1232.15ZM1913.18 1217.25 1940.68 1231 1913.18 1244.75Z" fill="#036749" fill-rule="nonzero" fill-opacity="1"/><path d="M1.03587e-05-1.14583 136.765-1.1446 136.764 1.14707-1.03587e-05 1.14583ZM132.181-13.7488 159.681 0.00144357 132.181 13.7512Z" fill="#036749" fill-rule="nonzero" fill-opacity="1" transform="matrix(1 0 0 -1 2068 1231)"/><text fill="#000000" fill-opacity="1" font-family="Meiryo UI,Meiryo UI_MSFontService,sans-serif" font-style="normal" font-variant="normal" font-weight="400" font-stretch="normal" font-size="83" text-anchor="start" direction="ltr" writing-mode="lr-tb" unicode-bidi="normal" text-decoration="none" transform="matrix(1 0 0 1 427.308 885)">入力層</text><text fill="#000000" fill-opacity="1" font-family="Meiryo UI,Meiryo UI_MSFontService,sans-serif" font-style="normal" font-variant="normal" font-weight="400" font-stretch="normal" font-size="83" text-anchor="start" direction="ltr" writing-mode="lr-tb" unicode-bidi="normal" text-decoration="none" transform="matrix(1 0 0 1 1014.29 885)">隠れ層</text><text fill="#000000" fill-opacity="1" font-family="Meiryo UI,Meiryo UI_MSFontService,sans-serif" font-style="normal" font-variant="normal" font-weight="400" font-stretch="normal" font-size="83" text-anchor="start" direction="ltr" writing-mode="lr-tb" unicode-bidi="normal" text-decoration="none" transform="matrix(1 0 0 1 1737.54 885)">出力層</text><text fill="#000000" fill-opacity="1" font-family="Meiryo UI,Meiryo UI_MSFontService,sans-serif" font-style="normal" font-variant="normal" font-weight="400" font-stretch="normal" font-size="50" text-anchor="start" direction="ltr" writing-mode="lr-tb" unicode-bidi="normal" text-decoration="none" transform="matrix(1 0 0 1 1243.4 1646)">↑</text><text fill="#000000" fill-opacity="1" font-family="Meiryo UI,Meiryo UI_MSFontService,sans-serif" font-style="normal" font-variant="normal" font-weight="400" font-stretch="normal" font-size="50" text-anchor="start" direction="ltr" writing-mode="lr-tb" unicode-bidi="normal" text-decoration="none" transform="matrix(1 0 0 1 1167.77 1706)">線形変換</text><text fill="#000000" fill-opacity="1" font-family="Cambria Math,Cambria Math_MSFontService,sans-serif" font-style="normal" font-variant="normal" font-weight="400" font-stretch="normal" font-size="50" text-anchor="start" direction="ltr" writing-mode="lr-tb" unicode-bidi="normal" text-decoration="none" transform="translate(1112.13 1766)">𝐮</text><text fill="#000000" fill-opacity="1" font-family="Cambria Math,Cambria Math_MSFontService,sans-serif" font-style="normal" font-variant="normal" font-weight="400" font-stretch="normal" font-size="37" text-anchor="start" direction="ltr" writing-mode="lr-tb" unicode-bidi="normal" text-decoration="none" transform="translate(1141.9 1777)">1</text><text fill="#000000" fill-opacity="1" font-family="Cambria Math,Cambria Math_MSFontService,sans-serif" font-style="normal" font-variant="normal" font-weight="400" font-stretch="normal" font-size="50" text-anchor="start" direction="ltr" writing-mode="lr-tb" unicode-bidi="normal" text-decoration="none" transform="translate(1179.18 1766)">=</text><text fill="#000000" fill-opacity="1" font-family="Cambria Math,Cambria Math_MSFontService,sans-serif" font-style="normal" font-variant="normal" font-weight="400" font-stretch="normal" font-size="50" text-anchor="start" direction="ltr" writing-mode="lr-tb" unicode-bidi="normal" text-decoration="none" transform="translate(1231 1766)">𝐖</text><text fill="#000000" fill-opacity="1" font-family="Cambria Math,Cambria Math_MSFontService,sans-serif" font-style="normal" font-variant="normal" font-weight="400" font-stretch="normal" font-size="50" text-anchor="start" direction="ltr" writing-mode="lr-tb" unicode-bidi="normal" text-decoration="none" transform="translate(1280.27 1766)">𝐡</text><text fill="#000000" fill-opacity="1" font-family="Cambria Math,Cambria Math_MSFontService,sans-serif" font-style="normal" font-variant="normal" font-weight="400" font-stretch="normal" font-size="37" text-anchor="start" direction="ltr" writing-mode="lr-tb" unicode-bidi="normal" text-decoration="none" transform="translate(1311.21 1777)">0</text><text fill="#000000" fill-opacity="1" font-family="Cambria Math,Cambria Math_MSFontService,sans-serif" font-style="normal" font-variant="normal" font-weight="400" font-stretch="normal" font-size="50" text-anchor="start" direction="ltr" writing-mode="lr-tb" unicode-bidi="normal" text-decoration="none" transform="translate(1345.7 1766)">+</text><text fill="#000000" fill-opacity="1" font-family="Cambria Math,Cambria Math_MSFontService,sans-serif" font-style="normal" font-variant="normal" font-weight="400" font-stretch="normal" font-size="50" text-anchor="start" direction="ltr" writing-mode="lr-tb" unicode-bidi="normal" text-decoration="none" transform="translate(1394.71 1766)">𝐛</text><text fill="#000000" fill-opacity="1" font-family="Cambria Math,Cambria Math_MSFontService,sans-serif" font-style="normal" font-variant="normal" font-weight="400" font-stretch="normal" font-size="50" text-anchor="start" direction="ltr" writing-mode="lr-tb" unicode-bidi="normal" text-decoration="none" transform="translate(966.42 1509)">𝐡</text><text fill="#000000" fill-opacity="1" font-family="Cambria Math,Cambria Math_MSFontService,sans-serif" font-style="normal" font-variant="normal" font-weight="400" font-stretch="normal" font-size="37" text-anchor="start" direction="ltr" writing-mode="lr-tb" unicode-bidi="normal" text-decoration="none" transform="translate(997.357 1520)">0</text><text fill="#000000" fill-opacity="1" font-family="Cambria Math,Cambria Math_MSFontService,sans-serif" font-style="normal" font-variant="normal" font-weight="400" font-stretch="normal" font-size="50" text-anchor="start" direction="ltr" writing-mode="lr-tb" unicode-bidi="normal" text-decoration="none" transform="translate(1107.3 1093)">𝐖</text><text fill="#000000" fill-opacity="1" font-family="Cambria Math,Cambria Math_MSFontService,sans-serif" font-style="normal" font-variant="normal" font-weight="400" font-stretch="normal" font-size="50" text-anchor="start" direction="ltr" writing-mode="lr-tb" unicode-bidi="normal" text-decoration="none" transform="translate(1117.19 1169)">𝐛</text><text fill="#000000" fill-opacity="1" font-family="Cambria Math,Cambria Math_MSFontService,sans-serif" font-style="normal" font-variant="normal" font-weight="400" font-stretch="normal" font-size="50" text-anchor="start" direction="ltr" writing-mode="lr-tb" unicode-bidi="normal" text-decoration="none" transform="translate(1255.2 1509)">𝐮</text><text fill="#000000" fill-opacity="1" font-family="Cambria Math,Cambria Math_MSFontService,sans-serif" font-style="normal" font-variant="normal" font-weight="400" font-stretch="normal" font-size="37" text-anchor="start" direction="ltr" writing-mode="lr-tb" unicode-bidi="normal" text-decoration="none" transform="translate(1284.97 1520)">1</text><text fill="#000000" fill-opacity="1" font-family="Meiryo UI,Meiryo UI_MSFontService,sans-serif" font-style="normal" font-variant="normal" font-weight="400" font-stretch="normal" font-size="50" text-anchor="start" direction="ltr" writing-mode="lr-tb" unicode-bidi="normal" text-decoration="none" transform="matrix(1 0 0 1 1971.23 1646)">↑</text><text fill="#000000" fill-opacity="1" font-family="Meiryo UI,Meiryo UI_MSFontService,sans-serif" font-style="normal" font-variant="normal" font-weight="400" font-stretch="normal" font-size="50" text-anchor="start" direction="ltr" writing-mode="lr-tb" unicode-bidi="normal" text-decoration="none" transform="matrix(1 0 0 1 1895.6 1706)">正規分布</text><text fill="#000000" fill-opacity="1" font-family="Cambria Math,Cambria Math_MSFontService,sans-serif" font-style="normal" font-variant="normal" font-weight="400" font-stretch="normal" font-size="50" text-anchor="start" direction="ltr" writing-mode="lr-tb" unicode-bidi="normal" text-decoration="none" transform="translate(1813.79 1766)">𝐮</text><text fill="#000000" fill-opacity="1" font-family="Cambria Math,Cambria Math_MSFontService,sans-serif" font-style="normal" font-variant="normal" font-weight="400" font-stretch="normal" font-size="37" text-anchor="start" direction="ltr" writing-mode="lr-tb" unicode-bidi="normal" text-decoration="none" transform="translate(1844.73 1777)">2</text><text fill="#000000" fill-opacity="1" font-family="Cambria Math,Cambria Math_MSFontService,sans-serif" font-style="normal" font-variant="normal" font-weight="400" font-stretch="normal" font-size="50" text-anchor="start" direction="ltr" writing-mode="lr-tb" unicode-bidi="normal" text-decoration="none" transform="translate(1882.01 1766)">∼</text><text fill="#000000" fill-opacity="1" font-family="Cambria Math,Cambria Math_MSFontService,sans-serif" font-style="normal" font-variant="normal" font-weight="400" font-stretch="normal" font-size="50" text-anchor="start" direction="ltr" writing-mode="lr-tb" unicode-bidi="normal" text-decoration="none" transform="translate(1932.11 1766)">𝑁</text><path d="M2159.74 1728.88C2164.5 1730.13 2168.15 1732.84 2170.69 1737 2173.24 1741.15 2174.52 1746.17 2174.52 1752.05 2174.52 1757.94 2173.25 1762.96 2170.71 1767.1 2168.17 1771.24 2164.51 1773.94 2159.74 1775.19L2159.16 1773.31C2162.92 1772.06 2165.71 1769.58 2167.55 1765.89 2169.38 1762.2 2170.29 1757.5 2170.29 1751.8 2170.29 1746.3 2169.38 1741.73 2167.56 1738.09 2165.73 1734.46 2162.91 1732.01 2159.09 1730.76ZM1989.18 1728.88 1989.84 1730.76C1986.03 1732.01 1983.21 1734.46 1981.38 1738.09 1979.55 1741.73 1978.63 1746.3 1978.63 1751.8 1978.63 1757.5 1979.55 1762.2 1981.38 1765.89 1983.21 1769.58 1986 1772.06 1989.76 1773.31L1989.18 1775.19C1984.41 1773.94 1980.75 1771.24 1978.22 1767.1 1975.68 1762.96 1974.41 1757.94 1974.41 1752.05 1974.41 1746.17 1975.68 1741.15 1978.23 1737 1980.77 1732.84 1984.42 1730.13 1989.18 1728.88Z" fill="#000000" fill-rule="evenodd" fill-opacity="1"/><text fill="#000000" fill-opacity="1" font-family="Cambria Math,Cambria Math_MSFontService,sans-serif" font-style="normal" font-variant="normal" font-weight="400" font-stretch="normal" font-size="50" text-anchor="start" direction="ltr" writing-mode="lr-tb" unicode-bidi="normal" text-decoration="none" transform="translate(1990.93 1766)">𝐡</text><text fill="#000000" fill-opacity="1" font-family="Cambria Math,Cambria Math_MSFontService,sans-serif" font-style="normal" font-variant="normal" font-weight="400" font-stretch="normal" font-size="37" text-anchor="start" direction="ltr" writing-mode="lr-tb" unicode-bidi="normal" text-decoration="none" transform="translate(2020.7 1777)">10</text><text fill="#000000" fill-opacity="1" font-family="Cambria Math,Cambria Math_MSFontService,sans-serif" font-style="normal" font-variant="normal" font-weight="400" font-stretch="normal" font-size="50" text-anchor="start" direction="ltr" writing-mode="lr-tb" unicode-bidi="normal" text-decoration="none" transform="translate(2065.18 1766)">,</text><text fill="#000000" fill-opacity="1" font-family="Cambria Math,Cambria Math_MSFontService,sans-serif" font-style="normal" font-variant="normal" font-weight="400" font-stretch="normal" font-size="50" text-anchor="start" direction="ltr" writing-mode="lr-tb" unicode-bidi="normal" text-decoration="none" transform="translate(2083.91 1766)">𝐡</text><text fill="#000000" fill-opacity="1" font-family="Cambria Math,Cambria Math_MSFontService,sans-serif" font-style="normal" font-variant="normal" font-weight="400" font-stretch="normal" font-size="37" text-anchor="start" direction="ltr" writing-mode="lr-tb" unicode-bidi="normal" text-decoration="none" transform="translate(2113.68 1777)">1</text><text fill="#000000" fill-opacity="1" font-family="Cambria Math,Cambria Math_MSFontService,sans-serif" font-style="normal" font-variant="normal" font-weight="400" font-stretch="normal" font-size="37" text-anchor="start" direction="ltr" writing-mode="lr-tb" unicode-bidi="normal" text-decoration="none" transform="translate(2134.87 1777)">1</text><text fill="#000000" fill-opacity="1" font-family="Cambria Math,Cambria Math_MSFontService,sans-serif" font-style="normal" font-variant="normal" font-weight="400" font-stretch="normal" font-size="50" text-anchor="start" direction="ltr" writing-mode="lr-tb" unicode-bidi="normal" text-decoration="none" transform="translate(1653.37 1509)">𝐡</text><text fill="#000000" fill-opacity="1" font-family="Cambria Math,Cambria Math_MSFontService,sans-serif" font-style="normal" font-variant="normal" font-weight="400" font-stretch="normal" font-size="37" text-anchor="start" direction="ltr" writing-mode="lr-tb" unicode-bidi="normal" text-decoration="none" transform="translate(1683.14 1520)">10</text><text fill="#000000" fill-opacity="1" font-family="Cambria Math,Cambria Math_MSFontService,sans-serif" font-style="normal" font-variant="normal" font-weight="400" font-stretch="normal" font-size="50" text-anchor="start" direction="ltr" writing-mode="lr-tb" unicode-bidi="normal" text-decoration="none" transform="translate(1727.62 1509)">,</text><text fill="#000000" fill-opacity="1" font-family="Cambria Math,Cambria Math_MSFontService,sans-serif" font-style="normal" font-variant="normal" font-weight="400" font-stretch="normal" font-size="50" text-anchor="start" direction="ltr" writing-mode="lr-tb" unicode-bidi="normal" text-decoration="none" transform="translate(1746.34 1509)">𝐡</text><text fill="#000000" fill-opacity="1" font-family="Cambria Math,Cambria Math_MSFontService,sans-serif" font-style="normal" font-variant="normal" font-weight="400" font-stretch="normal" font-size="37" text-anchor="start" direction="ltr" writing-mode="lr-tb" unicode-bidi="normal" text-decoration="none" transform="translate(1776.11 1520)">11</text><text fill="#000000" fill-opacity="1" font-family="Cambria Math,Cambria Math_MSFontService,sans-serif" font-style="normal" font-variant="normal" font-weight="400" font-stretch="normal" font-size="50" text-anchor="start" direction="ltr" writing-mode="lr-tb" unicode-bidi="normal" text-decoration="none" transform="translate(1998.07 1509)">𝐮</text><text fill="#000000" fill-opacity="1" font-family="Cambria Math,Cambria Math_MSFontService,sans-serif" font-style="normal" font-variant="normal" font-weight="400" font-stretch="normal" font-size="37" text-anchor="start" direction="ltr" writing-mode="lr-tb" unicode-bidi="normal" text-decoration="none" transform="translate(2029 1520)">2</text><path d="M926.5 1352.5C926.5 1317.15 955.154 1288.5 990.5 1288.5 1025.85 1288.5 1054.5 1317.15 1054.5 1352.5 1054.5 1387.85 1025.85 1416.5 990.5 1416.5 955.154 1416.5 926.5 1387.85 926.5 1352.5Z" stroke="#024A33" stroke-width="4.58333" stroke-linecap="butt" stroke-linejoin="miter" stroke-miterlimit="8" stroke-opacity="1" fill="#B0FDE6" fill-rule="evenodd" fill-opacity="1"/><text fill="#000000" fill-opacity="1" font-family="Cambria Math,Cambria Math_MSFontService,sans-serif" font-style="normal" font-variant="normal" font-weight="400" font-stretch="normal" font-size="83" text-anchor="start" direction="ltr" writing-mode="lr-tb" unicode-bidi="normal" text-decoration="none" transform="translate(961.007 1379)">+</text><path d="M1213.5 1352.5C1213.5 1317.15 1242.15 1288.5 1277.5 1288.5 1312.85 1288.5 1341.5 1317.15 1341.5 1352.5 1341.5 1387.85 1312.85 1416.5 1277.5 1416.5 1242.15 1416.5 1213.5 1387.85 1213.5 1352.5Z" stroke="#024A33" stroke-width="4.58333" stroke-linecap="butt" stroke-linejoin="miter" stroke-miterlimit="8" stroke-opacity="1" fill="#B0FDE6" fill-rule="evenodd" fill-opacity="1"/><text fill="#000000" fill-opacity="1" font-family="Cambria Math,Cambria Math_MSFontService,sans-serif" font-style="normal" font-variant="normal" font-weight="400" font-stretch="normal" font-size="83" text-anchor="start" direction="ltr" writing-mode="lr-tb" unicode-bidi="normal" text-decoration="none" transform="translate(1255.02 1379)">𝑓</text><path d="M1054 1350.85 1190.76 1350.86 1190.76 1353.15 1054 1353.15ZM1186.18 1338.25 1213.68 1352 1186.18 1365.75Z" fill="#036749" fill-rule="nonzero" fill-opacity="1"/><path d="M613.412 1229.93 905.187 1342.27 904.364 1344.41 612.588 1232.07ZM905.439 1328.86 926.162 1351.58 895.558 1354.53Z" fill="#036749" fill-rule="nonzero" fill-opacity="1"/><text fill="#000000" fill-opacity="1" font-family="Cambria Math,Cambria Math_MSFontService,sans-serif" font-style="normal" font-variant="normal" font-weight="400" font-stretch="normal" font-size="50" text-anchor="start" direction="ltr" writing-mode="lr-tb" unicode-bidi="normal" text-decoration="none" transform="translate(1103.2 1333)">𝐖</text><text fill="#000000" fill-opacity="1" font-family="Cambria Math,Cambria Math_MSFontService,sans-serif" font-style="normal" font-variant="normal" font-weight="400" font-stretch="normal" font-size="50" text-anchor="start" direction="ltr" writing-mode="lr-tb" unicode-bidi="normal" text-decoration="none" transform="translate(1113.08 1414)">𝐛</text><path d="M0.330747-1.09706 291.551 86.7013 290.889 88.8954-0.330747 1.09706ZM290.801 73.3108 313.162 94.4134 282.863 99.6402Z" fill="#036749" fill-rule="nonzero" fill-opacity="1" transform="matrix(1 0 0 -1 1341 1352.41)"/></g></svg>