<svg width="2113" height="912" xmlns="http://www.w3.org/2000/svg" xmlns:xlink="http://www.w3.org/1999/xlink" xml:space="preserve" overflow="hidden"><defs><clipPath id="clip0"><rect x="210" y="701" width="2113" height="912"/></clipPath></defs><g clip-path="url(#clip0)" transform="translate(-210 -701)"><rect x="213.5" y="707.5" width="2107" height="903" stroke="#036749" stroke-width="4.58333" stroke-linecap="butt" stroke-linejoin="miter" stroke-miterlimit="8" stroke-opacity="1" fill="#FFFFFF" fill-opacity="1"/><rect x="856.5" y="946.5" width="555" height="330" stroke="#EFF8D4" stroke-width="4.58333" stroke-linecap="butt" stroke-linejoin="miter" stroke-miterlimit="8" stroke-opacity="1" fill="#EFF8D4" fill-opacity="1"/><rect x="419.5" y="946.5" width="264" height="330" stroke="#EFF8D4" stroke-width="4.58333" stroke-linecap="butt" stroke-linejoin="miter" stroke-miterlimit="8" stroke-opacity="1" fill="#EFF8D4" fill-opacity="1"/><path d="M489.5 1111C489.5 1075.93 517.93 1047.5 553 1047.5 588.07 1047.5 616.5 1075.93 616.5 1111 616.5 1146.07 588.07 1174.5 553 1174.5 517.93 1174.5 489.5 1146.07 489.5 1111Z" stroke="#024A33" stroke-width="4.58333" stroke-linecap="butt" stroke-linejoin="miter" stroke-miterlimit="8" stroke-opacity="1" fill="#B0FDE6" fill-rule="evenodd" fill-opacity="1"/><path d="M926.5 1111C926.5 1075.93 955.154 1047.5 990.5 1047.5 1025.85 1047.5 1054.5 1075.93 1054.5 1111 1054.5 1146.07 1025.85 1174.5 990.5 1174.5 955.154 1174.5 926.5 1146.07 926.5 1111Z" stroke="#024A33" stroke-width="4.58333" stroke-linecap="butt" stroke-linejoin="miter" stroke-miterlimit="8" stroke-opacity="1" fill="#B0FDE6" fill-rule="evenodd" fill-opacity="1"/><text fill="#000000" fill-opacity="1" font-family="Cambria Math,Cambria Math_MSFontService,sans-serif" font-style="normal" font-variant="normal" font-weight="400" font-stretch="normal" font-size="83" text-anchor="start" direction="ltr" writing-mode="lr-tb" unicode-bidi="normal" text-decoration="none" transform="translate(961.007 1138)">+</text><path d="M1213.5 1111C1213.5 1075.93 1242.15 1047.5 1277.5 1047.5 1312.85 1047.5 1341.5 1075.93 1341.5 1111 1341.5 1146.07 1312.85 1174.5 1277.5 1174.5 1242.15 1174.5 1213.5 1146.07 1213.5 1111Z" stroke="#024A33" stroke-width="4.58333" stroke-linecap="butt" stroke-linejoin="miter" stroke-miterlimit="8" stroke-opacity="1" fill="#B0FDE6" fill-rule="evenodd" fill-opacity="1"/><text fill="#000000" fill-opacity="1" font-family="Cambria Math,Cambria Math_MSFontService,sans-serif" font-style="normal" font-variant="normal" font-weight="400" font-stretch="normal" font-size="83" text-anchor="start" direction="ltr" writing-mode="lr-tb" unicode-bidi="normal" text-decoration="none" transform="translate(1255.02 1138)">𝑓</text><path d="M303 1109.85 466.36 1109.86 466.36 1112.15 303 1112.15ZM461.777 1097.25 489.277 1111 461.777 1124.75Z" fill="#036749" fill-rule="nonzero" fill-opacity="1"/><rect x="1584.5" y="946.5" width="555" height="330" stroke="#EFF8D4" stroke-width="4.58333" stroke-linecap="butt" stroke-linejoin="miter" stroke-miterlimit="8" stroke-opacity="1" fill="#EFF8D4" fill-opacity="1"/><path d="M1654.5 1111C1654.5 1075.93 1682.93 1047.5 1718 1047.5 1753.07 1047.5 1781.5 1075.93 1781.5 1111 1781.5 1146.07 1753.07 1174.5 1718 1174.5 1682.93 1174.5 1654.5 1146.07 1654.5 1111Z" stroke="#024A33" stroke-width="4.58333" stroke-linecap="butt" stroke-linejoin="miter" stroke-miterlimit="8" stroke-opacity="1" fill="#B0FDE6" fill-rule="evenodd" fill-opacity="1"/><text fill="#000000" fill-opacity="1" font-family="Cambria Math,Cambria Math_MSFontService,sans-serif" font-style="normal" font-variant="normal" font-weight="400" font-stretch="normal" font-size="83" text-anchor="start" direction="ltr" writing-mode="lr-tb" unicode-bidi="normal" text-decoration="none" transform="translate(1688.84 1138)">+</text><path d="M1941.5 1111C1941.5 1075.93 1969.93 1047.5 2005 1047.5 2040.07 1047.5 2068.5 1075.93 2068.5 1111 2068.5 1146.07 2040.07 1174.5 2005 1174.5 1969.93 1174.5 1941.5 1146.07 1941.5 1111Z" stroke="#024A33" stroke-width="4.58333" stroke-linecap="butt" stroke-linejoin="miter" stroke-miterlimit="8" stroke-opacity="1" fill="#B0FDE6" fill-rule="evenodd" fill-opacity="1"/><text fill="#000000" fill-opacity="1" font-family="Cambria Math,Cambria Math_MSFontService,sans-serif" font-style="normal" font-variant="normal" font-weight="400" font-stretch="normal" font-size="83" text-anchor="start" direction="ltr" writing-mode="lr-tb" unicode-bidi="normal" text-decoration="none" transform="translate(1982.85 1138)">𝑓</text><path d="M3.99694e-06-1.14583 287.463-1.14483 287.463 1.14684-3.99694e-06 1.14583ZM282.879-13.749 310.379 0.00108268 282.879 13.751Z" fill="#036749" fill-rule="nonzero" fill-opacity="1" transform="matrix(1 0 0 -1 616 1111)"/><path d="M1054 1109.85 1190.76 1109.86 1190.76 1112.15 1054 1112.15ZM1186.18 1097.25 1213.68 1111 1186.18 1124.75Z" fill="#036749" fill-rule="nonzero" fill-opacity="1"/><path d="M1341 1109.85 1631.77 1109.85 1631.77 1112.15 1341 1112.15ZM1627.19 1097.25 1654.69 1111 1627.19 1124.75Z" fill="#036749" fill-rule="nonzero" fill-opacity="1"/><path d="M1781 1109.85 1917.76 1109.85 1917.76 1112.15 1781 1112.15ZM1913.18 1097.25 1940.68 1111 1913.18 1124.75Z" fill="#036749" fill-rule="nonzero" fill-opacity="1"/><path d="M1.03587e-05-1.14583 136.765-1.1446 136.764 1.14707-1.03587e-05 1.14583ZM132.181-13.7488 159.681 0.00144357 132.181 13.7512Z" fill="#036749" fill-rule="nonzero" fill-opacity="1" transform="matrix(1 0 0 -1 2068 1111)"/><text fill="#000000" fill-opacity="1" font-family="Meiryo UI,Meiryo UI_MSFontService,sans-serif" font-style="normal" font-variant="normal" font-weight="400" font-stretch="normal" font-size="83" text-anchor="start" direction="ltr" writing-mode="lr-tb" unicode-bidi="normal" text-decoration="none" transform="matrix(1 0 0 1 427.308 885)">入力層</text><text fill="#000000" fill-opacity="1" font-family="Meiryo UI,Meiryo UI_MSFontService,sans-serif" font-style="normal" font-variant="normal" font-weight="400" font-stretch="normal" font-size="83" text-anchor="start" direction="ltr" writing-mode="lr-tb" unicode-bidi="normal" text-decoration="none" transform="matrix(1 0 0 1 1014.29 885)">隠れ層</text><text fill="#000000" fill-opacity="1" font-family="Meiryo UI,Meiryo UI_MSFontService,sans-serif" font-style="normal" font-variant="normal" font-weight="400" font-stretch="normal" font-size="83" text-anchor="start" direction="ltr" writing-mode="lr-tb" unicode-bidi="normal" text-decoration="none" transform="matrix(1 0 0 1 1737.54 885)">出力層</text><text fill="#000000" fill-opacity="1" font-family="Meiryo UI,Meiryo UI_MSFontService,sans-serif" font-style="normal" font-variant="normal" font-weight="400" font-stretch="normal" font-size="50" text-anchor="start" direction="ltr" writing-mode="lr-tb" unicode-bidi="normal" text-decoration="none" transform="matrix(1 0 0 1 1243.4 1371)">↑</text><text fill="#000000" fill-opacity="1" font-family="Meiryo UI,Meiryo UI_MSFontService,sans-serif" font-style="normal" font-variant="normal" font-weight="400" font-stretch="normal" font-size="50" text-anchor="start" direction="ltr" writing-mode="lr-tb" unicode-bidi="normal" text-decoration="none" transform="matrix(1 0 0 1 1167.77 1431)">線形変換</text><text fill="#000000" fill-opacity="1" font-family="Cambria Math,Cambria Math_MSFontService,sans-serif" font-style="normal" font-variant="normal" font-weight="400" font-stretch="normal" font-size="50" text-anchor="start" direction="ltr" writing-mode="lr-tb" unicode-bidi="normal" text-decoration="none" transform="translate(1112.13 1491)">𝐮</text><text fill="#000000" fill-opacity="1" font-family="Cambria Math,Cambria Math_MSFontService,sans-serif" font-style="normal" font-variant="normal" font-weight="400" font-stretch="normal" font-size="37" text-anchor="start" direction="ltr" writing-mode="lr-tb" unicode-bidi="normal" text-decoration="none" transform="translate(1141.9 1502)">1</text><text fill="#000000" fill-opacity="1" font-family="Cambria Math,Cambria Math_MSFontService,sans-serif" font-style="normal" font-variant="normal" font-weight="400" font-stretch="normal" font-size="50" text-anchor="start" direction="ltr" writing-mode="lr-tb" unicode-bidi="normal" text-decoration="none" transform="translate(1179.18 1491)">=</text><text fill="#000000" fill-opacity="1" font-family="Cambria Math,Cambria Math_MSFontService,sans-serif" font-style="normal" font-variant="normal" font-weight="400" font-stretch="normal" font-size="50" text-anchor="start" direction="ltr" writing-mode="lr-tb" unicode-bidi="normal" text-decoration="none" transform="translate(1231 1491)">𝐖</text><text fill="#000000" fill-opacity="1" font-family="Cambria Math,Cambria Math_MSFontService,sans-serif" font-style="normal" font-variant="normal" font-weight="400" font-stretch="normal" font-size="50" text-anchor="start" direction="ltr" writing-mode="lr-tb" unicode-bidi="normal" text-decoration="none" transform="translate(1280.27 1491)">𝐡</text><text fill="#000000" fill-opacity="1" font-family="Cambria Math,Cambria Math_MSFontService,sans-serif" font-style="normal" font-variant="normal" font-weight="400" font-stretch="normal" font-size="37" text-anchor="start" direction="ltr" writing-mode="lr-tb" unicode-bidi="normal" text-decoration="none" transform="translate(1311.21 1502)">0</text><text fill="#000000" fill-opacity="1" font-family="Cambria Math,Cambria Math_MSFontService,sans-serif" font-style="normal" font-variant="normal" font-weight="400" font-stretch="normal" font-size="50" text-anchor="start" direction="ltr" writing-mode="lr-tb" unicode-bidi="normal" text-decoration="none" transform="translate(1345.7 1491)">+</text><text fill="#000000" fill-opacity="1" font-family="Cambria Math,Cambria Math_MSFontService,sans-serif" font-style="normal" font-variant="normal" font-weight="400" font-stretch="normal" font-size="50" text-anchor="start" direction="ltr" writing-mode="lr-tb" unicode-bidi="normal" text-decoration="none" transform="translate(1394.71 1491)">𝐛</text><text fill="#000000" fill-opacity="1" font-family="Cambria Math,Cambria Math_MSFontService,sans-serif" font-style="normal" font-variant="normal" font-weight="400" font-stretch="normal" font-size="50" text-anchor="start" direction="ltr" writing-mode="lr-tb" unicode-bidi="normal" text-decoration="none" transform="translate(966.42 1240)">𝐡</text><text fill="#000000" fill-opacity="1" font-family="Cambria Math,Cambria Math_MSFontService,sans-serif" font-style="normal" font-variant="normal" font-weight="400" font-stretch="normal" font-size="37" text-anchor="start" direction="ltr" writing-mode="lr-tb" unicode-bidi="normal" text-decoration="none" transform="translate(997.357 1250)">0</text><text fill="#000000" fill-opacity="1" font-family="Cambria Math,Cambria Math_MSFontService,sans-serif" font-style="normal" font-variant="normal" font-weight="400" font-stretch="normal" font-size="50" text-anchor="start" direction="ltr" writing-mode="lr-tb" unicode-bidi="normal" text-decoration="none" transform="translate(1107.3 1083)">𝐖</text><text fill="#000000" fill-opacity="1" font-family="Cambria Math,Cambria Math_MSFontService,sans-serif" font-style="normal" font-variant="normal" font-weight="400" font-stretch="normal" font-size="50" text-anchor="start" direction="ltr" writing-mode="lr-tb" unicode-bidi="normal" text-decoration="none" transform="translate(1117.19 1194)">𝐛</text><text fill="#000000" fill-opacity="1" font-family="Cambria Math,Cambria Math_MSFontService,sans-serif" font-style="normal" font-variant="normal" font-weight="400" font-stretch="normal" font-size="50" text-anchor="start" direction="ltr" writing-mode="lr-tb" unicode-bidi="normal" text-decoration="none" transform="translate(1255.2 1240)">𝐮</text><text fill="#000000" fill-opacity="1" font-family="Cambria Math,Cambria Math_MSFontService,sans-serif" font-style="normal" font-variant="normal" font-weight="400" font-stretch="normal" font-size="37" text-anchor="start" direction="ltr" writing-mode="lr-tb" unicode-bidi="normal" text-decoration="none" transform="translate(1284.97 1250)">1</text><text fill="#000000" fill-opacity="1" font-family="Meiryo UI,Meiryo UI_MSFontService,sans-serif" font-style="normal" font-variant="normal" font-weight="400" font-stretch="normal" font-size="50" text-anchor="start" direction="ltr" writing-mode="lr-tb" unicode-bidi="normal" text-decoration="none" transform="matrix(1 0 0 1 1971.23 1371)">↑</text><text fill="#000000" fill-opacity="1" font-family="Meiryo UI,Meiryo UI_MSFontService,sans-serif" font-style="normal" font-variant="normal" font-weight="400" font-stretch="normal" font-size="50" text-anchor="start" direction="ltr" writing-mode="lr-tb" unicode-bidi="normal" text-decoration="none" transform="matrix(1 0 0 1 1895.6 1431)">正規分布</text><text fill="#000000" fill-opacity="1" font-family="Cambria Math,Cambria Math_MSFontService,sans-serif" font-style="normal" font-variant="normal" font-weight="400" font-stretch="normal" font-size="50" text-anchor="start" direction="ltr" writing-mode="lr-tb" unicode-bidi="normal" text-decoration="none" transform="translate(1847.48 1491)">𝐮</text><text fill="#000000" fill-opacity="1" font-family="Cambria Math,Cambria Math_MSFontService,sans-serif" font-style="normal" font-variant="normal" font-weight="400" font-stretch="normal" font-size="37" text-anchor="start" direction="ltr" writing-mode="lr-tb" unicode-bidi="normal" text-decoration="none" transform="translate(1878.41 1502)">2</text><text fill="#000000" fill-opacity="1" font-family="Cambria Math,Cambria Math_MSFontService,sans-serif" font-style="normal" font-variant="normal" font-weight="400" font-stretch="normal" font-size="50" text-anchor="start" direction="ltr" writing-mode="lr-tb" unicode-bidi="normal" text-decoration="none" transform="translate(1915.7 1491)">∼</text><text fill="#000000" fill-opacity="1" font-family="Cambria Math,Cambria Math_MSFontService,sans-serif" font-style="normal" font-variant="normal" font-weight="400" font-stretch="normal" font-size="50" text-anchor="start" direction="ltr" writing-mode="lr-tb" unicode-bidi="normal" text-decoration="none" transform="translate(1965.8 1491)">𝑁</text><path d="M2126.06 1453.81C2130.81 1455.06 2134.46 1457.77 2137.01 1461.93 2139.55 1466.08 2140.83 1471.1 2140.83 1476.98 2140.83 1482.87 2139.56 1487.89 2137.02 1492.03 2134.48 1496.17 2130.83 1498.87 2126.06 1500.12L2125.47 1498.24C2129.23 1496.99 2132.03 1494.51 2133.86 1490.82 2135.69 1487.13 2136.6 1482.43 2136.6 1476.73 2136.6 1471.23 2135.69 1466.66 2133.87 1463.02 2132.05 1459.39 2129.22 1456.94 2125.4 1455.69ZM2022.86 1453.81 2023.52 1455.69C2019.71 1456.94 2016.9 1459.39 2015.06 1463.02 2013.23 1466.66 2012.32 1471.23 2012.32 1476.73 2012.32 1482.43 2013.23 1487.13 2015.06 1490.82 2016.9 1494.51 2019.69 1496.99 2023.45 1498.24L2022.86 1500.12C2018.1 1498.87 2014.44 1496.17 2011.9 1492.03 2009.36 1487.89 2008.09 1482.87 2008.09 1476.98 2008.09 1471.1 2009.37 1466.08 2011.91 1461.93 2014.46 1457.77 2018.11 1455.06 2022.86 1453.81Z" fill="#000000" fill-rule="evenodd" fill-opacity="1"/><text fill="#000000" fill-opacity="1" font-family="Cambria Math,Cambria Math_MSFontService,sans-serif" font-style="normal" font-variant="normal" font-weight="400" font-stretch="normal" font-size="50" text-anchor="start" direction="ltr" writing-mode="lr-tb" unicode-bidi="normal" text-decoration="none" transform="translate(2024.62 1491)">𝐡</text><text fill="#000000" fill-opacity="1" font-family="Cambria Math,Cambria Math_MSFontService,sans-serif" font-style="normal" font-variant="normal" font-weight="400" font-stretch="normal" font-size="37" text-anchor="start" direction="ltr" writing-mode="lr-tb" unicode-bidi="normal" text-decoration="none" transform="translate(2054.39 1502)">1</text><text fill="#000000" fill-opacity="1" font-family="Cambria Math,Cambria Math_MSFontService,sans-serif" font-style="normal" font-variant="normal" font-weight="400" font-stretch="normal" font-size="50" text-anchor="start" direction="ltr" writing-mode="lr-tb" unicode-bidi="normal" text-decoration="none" transform="translate(2077.67 1491)">,</text><text fill="#000000" fill-opacity="1" font-family="Cambria Math,Cambria Math_MSFontService,sans-serif" font-style="normal" font-variant="normal" font-weight="400" font-stretch="normal" font-size="50" text-anchor="start" direction="ltr" writing-mode="lr-tb" unicode-bidi="normal" text-decoration="none" transform="translate(2096.4 1491)">1</text><text fill="#000000" fill-opacity="1" font-family="Cambria Math,Cambria Math_MSFontService,sans-serif" font-style="normal" font-variant="normal" font-weight="400" font-stretch="normal" font-size="50" text-anchor="start" direction="ltr" writing-mode="lr-tb" unicode-bidi="normal" text-decoration="none" transform="translate(1710.45 1240)">𝐡</text><text fill="#000000" fill-opacity="1" font-family="Cambria Math,Cambria Math_MSFontService,sans-serif" font-style="normal" font-variant="normal" font-weight="400" font-stretch="normal" font-size="37" text-anchor="start" direction="ltr" writing-mode="lr-tb" unicode-bidi="normal" text-decoration="none" transform="translate(1740.22 1250)">1</text><text fill="#000000" fill-opacity="1" font-family="Cambria Math,Cambria Math_MSFontService,sans-serif" font-style="normal" font-variant="normal" font-weight="400" font-stretch="normal" font-size="50" text-anchor="start" direction="ltr" writing-mode="lr-tb" unicode-bidi="normal" text-decoration="none" transform="translate(1998.07 1240)">𝐮</text><text fill="#000000" fill-opacity="1" font-family="Cambria Math,Cambria Math_MSFontService,sans-serif" font-style="normal" font-variant="normal" font-weight="400" font-stretch="normal" font-size="37" text-anchor="start" direction="ltr" writing-mode="lr-tb" unicode-bidi="normal" text-decoration="none" transform="translate(2029 1250)">2</text></g></svg>